<mxfile host="Electron" modified="2025-03-04T14:12:08.811Z" agent="Mozilla/5.0 (Windows NT 10.0; Win64; x64) AppleWebKit/537.36 (KHTML, like Gecko) draw.io/21.2.1 Chrome/112.0.5615.87 Electron/24.1.2 Safari/537.36" etag="i82L7nW6VrNUdkyO2apb" version="21.2.1" type="device">
  <diagram name="Seite-1" id="9__LCdmmGacqktosTfNm">
    <mxGraphModel dx="1126" dy="679" grid="1" gridSize="10" guides="1" tooltips="1" connect="1" arrows="1" fold="1" page="1" pageScale="1" pageWidth="827" pageHeight="1169" math="0" shadow="0">
      <root>
        <mxCell id="0" />
        <mxCell id="1" parent="0" />
        <mxCell id="ixQiI9HFGh_PmM7cg_0j-1" value="&lt;b&gt;Template2&lt;/b&gt;&lt;br&gt;Archetype Pulse&lt;br&gt;rate&lt;br&gt;regularity" style="rounded=0;whiteSpace=wrap;html=1;fillColor=#dae8fc;strokeColor=#6c8ebf;" parent="1" vertex="1">
          <mxGeometry x="230" y="330" width="120" height="60" as="geometry" />
        </mxCell>
        <mxCell id="ixQiI9HFGh_PmM7cg_0j-2" value="&lt;b&gt;Template1&lt;br&gt;&lt;/b&gt;Archetype Pulse&lt;br&gt;rate&lt;br&gt;extersion&lt;br&gt;regularity" style="rounded=0;whiteSpace=wrap;html=1;fillColor=#dae8fc;strokeColor=#6c8ebf;" parent="1" vertex="1">
          <mxGeometry x="35" y="330" width="130" height="70" as="geometry" />
        </mxCell>
        <mxCell id="ixQiI9HFGh_PmM7cg_0j-3" value="Composition1&lt;br&gt;rate: 120&lt;br&gt;extersion: high&lt;br&gt;regularity: normal" style="rounded=0;whiteSpace=wrap;html=1;fillColor=#dae8fc;strokeColor=#6c8ebf;" parent="1" vertex="1">
          <mxGeometry x="40" y="460" width="120" height="60" as="geometry" />
        </mxCell>
        <mxCell id="ixQiI9HFGh_PmM7cg_0j-4" value="Composition2&lt;br&gt;rate: 120&lt;br&gt;regularity: normal" style="rounded=0;whiteSpace=wrap;html=1;fillColor=#dae8fc;strokeColor=#6c8ebf;" parent="1" vertex="1">
          <mxGeometry x="230" y="460" width="120" height="60" as="geometry" />
        </mxCell>
        <mxCell id="ixQiI9HFGh_PmM7cg_0j-6" value="" style="endArrow=none;dashed=1;html=1;rounded=0;entryX=0.5;entryY=1;entryDx=0;entryDy=0;exitX=0.5;exitY=0;exitDx=0;exitDy=0;" parent="1" source="ixQiI9HFGh_PmM7cg_0j-3" target="ixQiI9HFGh_PmM7cg_0j-2" edge="1">
          <mxGeometry width="50" height="50" relative="1" as="geometry">
            <mxPoint x="100" y="450" as="sourcePoint" />
            <mxPoint x="150" y="400" as="targetPoint" />
          </mxGeometry>
        </mxCell>
        <mxCell id="ixQiI9HFGh_PmM7cg_0j-7" value="" style="endArrow=none;dashed=1;html=1;rounded=0;exitX=0.5;exitY=0;exitDx=0;exitDy=0;entryX=0.5;entryY=1;entryDx=0;entryDy=0;" parent="1" source="ixQiI9HFGh_PmM7cg_0j-4" target="ixQiI9HFGh_PmM7cg_0j-1" edge="1">
          <mxGeometry width="50" height="50" relative="1" as="geometry">
            <mxPoint x="289.65999999999997" y="460" as="sourcePoint" />
            <mxPoint x="290" y="390" as="targetPoint" />
          </mxGeometry>
        </mxCell>
        <mxCell id="ixQiI9HFGh_PmM7cg_0j-8" value="FHIR Profile Zib&lt;br&gt;heart rate&lt;br&gt;rate&lt;br&gt;extersion" style="rounded=0;whiteSpace=wrap;html=1;fillColor=#ffe6cc;strokeColor=#d79b00;" parent="1" vertex="1">
          <mxGeometry x="40" y="660" width="120" height="60" as="geometry" />
        </mxCell>
        <mxCell id="ixQiI9HFGh_PmM7cg_0j-9" value="FHIR Profile 2&lt;br&gt;heart rate&lt;br style=&quot;border-color: var(--border-color);&quot;&gt;rate&lt;br&gt;regularity" style="rounded=0;whiteSpace=wrap;html=1;fillColor=#f8cecc;strokeColor=#b85450;" parent="1" vertex="1">
          <mxGeometry x="240" y="660" width="120" height="60" as="geometry" />
        </mxCell>
        <mxCell id="ixQiI9HFGh_PmM7cg_0j-10" value="" style="endArrow=classic;html=1;rounded=0;exitX=0.5;exitY=1;exitDx=0;exitDy=0;entryX=0.5;entryY=0;entryDx=0;entryDy=0;" parent="1" source="ixQiI9HFGh_PmM7cg_0j-3" target="ixQiI9HFGh_PmM7cg_0j-9" edge="1">
          <mxGeometry width="50" height="50" relative="1" as="geometry">
            <mxPoint x="180" y="630" as="sourcePoint" />
            <mxPoint x="230" y="580" as="targetPoint" />
          </mxGeometry>
        </mxCell>
        <mxCell id="ixQiI9HFGh_PmM7cg_0j-11" value="" style="endArrow=classic;html=1;rounded=0;exitX=0.5;exitY=1;exitDx=0;exitDy=0;entryX=0.5;entryY=0;entryDx=0;entryDy=0;" parent="1" source="ixQiI9HFGh_PmM7cg_0j-4" target="ixQiI9HFGh_PmM7cg_0j-8" edge="1">
          <mxGeometry width="50" height="50" relative="1" as="geometry">
            <mxPoint x="110" y="530" as="sourcePoint" />
            <mxPoint x="310" y="670" as="targetPoint" />
          </mxGeometry>
        </mxCell>
        <mxCell id="ixQiI9HFGh_PmM7cg_0j-12" value="" style="endArrow=classic;html=1;rounded=0;exitX=0.487;exitY=0.981;exitDx=0;exitDy=0;entryX=0.5;entryY=0;entryDx=0;entryDy=0;exitPerimeter=0;" parent="1" source="ixQiI9HFGh_PmM7cg_0j-3" target="ixQiI9HFGh_PmM7cg_0j-8" edge="1">
          <mxGeometry width="50" height="50" relative="1" as="geometry">
            <mxPoint x="110" y="530" as="sourcePoint" />
            <mxPoint x="310" y="670" as="targetPoint" />
          </mxGeometry>
        </mxCell>
        <mxCell id="ixQiI9HFGh_PmM7cg_0j-13" value="" style="endArrow=classic;html=1;rounded=0;exitX=0.576;exitY=1.011;exitDx=0;exitDy=0;entryX=0.5;entryY=0;entryDx=0;entryDy=0;exitPerimeter=0;" parent="1" source="ixQiI9HFGh_PmM7cg_0j-4" target="ixQiI9HFGh_PmM7cg_0j-9" edge="1">
          <mxGeometry width="50" height="50" relative="1" as="geometry">
            <mxPoint x="380" y="520" as="sourcePoint" />
            <mxPoint x="380" y="660" as="targetPoint" />
          </mxGeometry>
        </mxCell>
      </root>
    </mxGraphModel>
  </diagram>
</mxfile>
